<mxfile host="app.diagrams.net" modified="2021-03-17T18:13:07.260Z" agent="5.0 (Windows NT 10.0; Win64; x64) AppleWebKit/537.36 (KHTML, like Gecko) Chrome/89.0.4389.90 Safari/537.36" etag="NNwfDv1ZkNky8hHB9eWf" version="14.4.8" type="github">
  <diagram name="Page-1" id="efa7a0a1-bf9b-a30e-e6df-94a7791c09e9">
    <mxGraphModel dx="1009" dy="502" grid="1" gridSize="10" guides="1" tooltips="1" connect="1" arrows="1" fold="1" page="1" pageScale="1" pageWidth="826" pageHeight="1169" background="#ffffff" math="0" shadow="0">
      <root>
        <mxCell id="0" />
        <mxCell id="1" parent="0" />
        <mxCell id="l_n6AM041N4fsggl3QX--114" value="Country" style="shape=table;startSize=30;container=1;collapsible=1;childLayout=tableLayout;fixedRows=1;rowLines=0;fontStyle=1;align=center;resizeLast=1;" vertex="1" parent="1">
          <mxGeometry x="40" y="20" width="210" height="670" as="geometry" />
        </mxCell>
        <mxCell id="l_n6AM041N4fsggl3QX--115" value="" style="shape=partialRectangle;collapsible=0;dropTarget=0;pointerEvents=0;fillColor=none;top=0;left=0;bottom=1;right=0;points=[[0,0.5],[1,0.5]];portConstraint=eastwest;" vertex="1" parent="l_n6AM041N4fsggl3QX--114">
          <mxGeometry y="30" width="210" height="30" as="geometry" />
        </mxCell>
        <mxCell id="l_n6AM041N4fsggl3QX--116" value="PK" style="shape=partialRectangle;connectable=0;fillColor=none;top=0;left=0;bottom=0;right=0;fontStyle=1;overflow=hidden;" vertex="1" parent="l_n6AM041N4fsggl3QX--115">
          <mxGeometry width="30" height="30" as="geometry" />
        </mxCell>
        <mxCell id="l_n6AM041N4fsggl3QX--117" value="CountryCode (Text[2])" style="shape=partialRectangle;connectable=0;fillColor=none;top=0;left=0;bottom=0;right=0;align=left;spacingLeft=6;fontStyle=5;overflow=hidden;" vertex="1" parent="l_n6AM041N4fsggl3QX--115">
          <mxGeometry x="30" width="180" height="30" as="geometry" />
        </mxCell>
        <mxCell id="l_n6AM041N4fsggl3QX--118" value="" style="shape=partialRectangle;collapsible=0;dropTarget=0;pointerEvents=0;fillColor=none;top=0;left=0;bottom=0;right=0;points=[[0,0.5],[1,0.5]];portConstraint=eastwest;" vertex="1" parent="l_n6AM041N4fsggl3QX--114">
          <mxGeometry y="60" width="210" height="30" as="geometry" />
        </mxCell>
        <mxCell id="l_n6AM041N4fsggl3QX--119" value="" style="shape=partialRectangle;connectable=0;fillColor=none;top=0;left=0;bottom=0;right=0;editable=1;overflow=hidden;" vertex="1" parent="l_n6AM041N4fsggl3QX--118">
          <mxGeometry width="30" height="30" as="geometry" />
        </mxCell>
        <mxCell id="l_n6AM041N4fsggl3QX--120" value="Continent (Text[2])" style="shape=partialRectangle;connectable=0;fillColor=none;top=0;left=0;bottom=0;right=0;align=left;spacingLeft=6;overflow=hidden;" vertex="1" parent="l_n6AM041N4fsggl3QX--118">
          <mxGeometry x="30" width="180" height="30" as="geometry" />
        </mxCell>
        <mxCell id="l_n6AM041N4fsggl3QX--121" value="" style="shape=partialRectangle;collapsible=0;dropTarget=0;pointerEvents=0;fillColor=none;top=0;left=0;bottom=0;right=0;points=[[0,0.5],[1,0.5]];portConstraint=eastwest;" vertex="1" parent="l_n6AM041N4fsggl3QX--114">
          <mxGeometry y="90" width="210" height="30" as="geometry" />
        </mxCell>
        <mxCell id="l_n6AM041N4fsggl3QX--122" value="" style="shape=partialRectangle;connectable=0;fillColor=none;top=0;left=0;bottom=0;right=0;editable=1;overflow=hidden;" vertex="1" parent="l_n6AM041N4fsggl3QX--121">
          <mxGeometry width="30" height="30" as="geometry" />
        </mxCell>
        <mxCell id="l_n6AM041N4fsggl3QX--123" value="Capital (Text[50])" style="shape=partialRectangle;connectable=0;fillColor=none;top=0;left=0;bottom=0;right=0;align=left;spacingLeft=6;overflow=hidden;" vertex="1" parent="l_n6AM041N4fsggl3QX--121">
          <mxGeometry x="30" width="180" height="30" as="geometry" />
        </mxCell>
        <mxCell id="l_n6AM041N4fsggl3QX--124" value="" style="shape=partialRectangle;collapsible=0;dropTarget=0;pointerEvents=0;fillColor=none;top=0;left=0;bottom=0;right=0;points=[[0,0.5],[1,0.5]];portConstraint=eastwest;" vertex="1" parent="l_n6AM041N4fsggl3QX--114">
          <mxGeometry y="120" width="210" height="30" as="geometry" />
        </mxCell>
        <mxCell id="l_n6AM041N4fsggl3QX--125" value="" style="shape=partialRectangle;connectable=0;fillColor=none;top=0;left=0;bottom=0;right=0;editable=1;overflow=hidden;" vertex="1" parent="l_n6AM041N4fsggl3QX--124">
          <mxGeometry width="30" height="30" as="geometry" />
        </mxCell>
        <mxCell id="l_n6AM041N4fsggl3QX--126" value="GeoNameIDÂ (Long Int)" style="shape=partialRectangle;connectable=0;fillColor=none;top=0;left=0;bottom=0;right=0;align=left;spacingLeft=6;overflow=hidden;fontStyle=0" vertex="1" parent="l_n6AM041N4fsggl3QX--124">
          <mxGeometry x="30" width="180" height="30" as="geometry" />
        </mxCell>
        <mxCell id="l_n6AM041N4fsggl3QX--144" style="shape=partialRectangle;collapsible=0;dropTarget=0;pointerEvents=0;fillColor=none;top=0;left=0;bottom=0;right=0;points=[[0,0.5],[1,0.5]];portConstraint=eastwest;" vertex="1" parent="l_n6AM041N4fsggl3QX--114">
          <mxGeometry y="150" width="210" height="30" as="geometry" />
        </mxCell>
        <mxCell id="l_n6AM041N4fsggl3QX--145" style="shape=partialRectangle;connectable=0;fillColor=none;top=0;left=0;bottom=0;right=0;editable=1;overflow=hidden;" vertex="1" parent="l_n6AM041N4fsggl3QX--144">
          <mxGeometry width="30" height="30" as="geometry" />
        </mxCell>
        <mxCell id="l_n6AM041N4fsggl3QX--146" value="South (Decimal (37,8))" style="shape=partialRectangle;connectable=0;fillColor=none;top=0;left=0;bottom=0;right=0;align=left;spacingLeft=6;overflow=hidden;fontStyle=0" vertex="1" parent="l_n6AM041N4fsggl3QX--144">
          <mxGeometry x="30" width="180" height="30" as="geometry" />
        </mxCell>
        <mxCell id="l_n6AM041N4fsggl3QX--147" style="shape=partialRectangle;collapsible=0;dropTarget=0;pointerEvents=0;fillColor=none;top=0;left=0;bottom=0;right=0;points=[[0,0.5],[1,0.5]];portConstraint=eastwest;" vertex="1" parent="l_n6AM041N4fsggl3QX--114">
          <mxGeometry y="180" width="210" height="30" as="geometry" />
        </mxCell>
        <mxCell id="l_n6AM041N4fsggl3QX--148" style="shape=partialRectangle;connectable=0;fillColor=none;top=0;left=0;bottom=0;right=0;editable=1;overflow=hidden;" vertex="1" parent="l_n6AM041N4fsggl3QX--147">
          <mxGeometry width="30" height="30" as="geometry" />
        </mxCell>
        <mxCell id="l_n6AM041N4fsggl3QX--149" value="isoAlpha3 (Text[3]))" style="shape=partialRectangle;connectable=0;fillColor=none;top=0;left=0;bottom=0;right=0;align=left;spacingLeft=6;overflow=hidden;fontStyle=0" vertex="1" parent="l_n6AM041N4fsggl3QX--147">
          <mxGeometry x="30" width="180" height="30" as="geometry" />
        </mxCell>
        <mxCell id="l_n6AM041N4fsggl3QX--150" style="shape=partialRectangle;collapsible=0;dropTarget=0;pointerEvents=0;fillColor=none;top=0;left=0;bottom=0;right=0;points=[[0,0.5],[1,0.5]];portConstraint=eastwest;" vertex="1" parent="l_n6AM041N4fsggl3QX--114">
          <mxGeometry y="210" width="210" height="30" as="geometry" />
        </mxCell>
        <mxCell id="l_n6AM041N4fsggl3QX--151" style="shape=partialRectangle;connectable=0;fillColor=none;top=0;left=0;bottom=0;right=0;editable=1;overflow=hidden;" vertex="1" parent="l_n6AM041N4fsggl3QX--150">
          <mxGeometry width="30" height="30" as="geometry" />
        </mxCell>
        <mxCell id="l_n6AM041N4fsggl3QX--152" value="North (Decimal (37,8))" style="shape=partialRectangle;connectable=0;fillColor=none;top=0;left=0;bottom=0;right=0;align=left;spacingLeft=6;overflow=hidden;fontStyle=0" vertex="1" parent="l_n6AM041N4fsggl3QX--150">
          <mxGeometry x="30" width="180" height="30" as="geometry" />
        </mxCell>
        <mxCell id="l_n6AM041N4fsggl3QX--180" style="shape=partialRectangle;collapsible=0;dropTarget=0;pointerEvents=0;fillColor=none;top=0;left=0;bottom=0;right=0;points=[[0,0.5],[1,0.5]];portConstraint=eastwest;" vertex="1" parent="l_n6AM041N4fsggl3QX--114">
          <mxGeometry y="240" width="210" height="30" as="geometry" />
        </mxCell>
        <mxCell id="l_n6AM041N4fsggl3QX--181" style="shape=partialRectangle;connectable=0;fillColor=none;top=0;left=0;bottom=0;right=0;editable=1;overflow=hidden;" vertex="1" parent="l_n6AM041N4fsggl3QX--180">
          <mxGeometry width="30" height="30" as="geometry" />
        </mxCell>
        <mxCell id="l_n6AM041N4fsggl3QX--182" value="FipsCode (Text([2])" style="shape=partialRectangle;connectable=0;fillColor=none;top=0;left=0;bottom=0;right=0;align=left;spacingLeft=6;overflow=hidden;fontStyle=0" vertex="1" parent="l_n6AM041N4fsggl3QX--180">
          <mxGeometry x="30" width="180" height="30" as="geometry" />
        </mxCell>
        <mxCell id="l_n6AM041N4fsggl3QX--177" style="shape=partialRectangle;collapsible=0;dropTarget=0;pointerEvents=0;fillColor=none;top=0;left=0;bottom=0;right=0;points=[[0,0.5],[1,0.5]];portConstraint=eastwest;" vertex="1" parent="l_n6AM041N4fsggl3QX--114">
          <mxGeometry y="270" width="210" height="30" as="geometry" />
        </mxCell>
        <mxCell id="l_n6AM041N4fsggl3QX--178" style="shape=partialRectangle;connectable=0;fillColor=none;top=0;left=0;bottom=0;right=0;editable=1;overflow=hidden;" vertex="1" parent="l_n6AM041N4fsggl3QX--177">
          <mxGeometry width="30" height="30" as="geometry" />
        </mxCell>
        <mxCell id="l_n6AM041N4fsggl3QX--179" value="Population (Text)" style="shape=partialRectangle;connectable=0;fillColor=none;top=0;left=0;bottom=0;right=0;align=left;spacingLeft=6;overflow=hidden;fontStyle=0" vertex="1" parent="l_n6AM041N4fsggl3QX--177">
          <mxGeometry x="30" width="180" height="30" as="geometry" />
        </mxCell>
        <mxCell id="l_n6AM041N4fsggl3QX--174" style="shape=partialRectangle;collapsible=0;dropTarget=0;pointerEvents=0;fillColor=none;top=0;left=0;bottom=0;right=0;points=[[0,0.5],[1,0.5]];portConstraint=eastwest;" vertex="1" parent="l_n6AM041N4fsggl3QX--114">
          <mxGeometry y="300" width="210" height="30" as="geometry" />
        </mxCell>
        <mxCell id="l_n6AM041N4fsggl3QX--175" style="shape=partialRectangle;connectable=0;fillColor=none;top=0;left=0;bottom=0;right=0;editable=1;overflow=hidden;" vertex="1" parent="l_n6AM041N4fsggl3QX--174">
          <mxGeometry width="30" height="30" as="geometry" />
        </mxCell>
        <mxCell id="l_n6AM041N4fsggl3QX--176" value="East (Decimal (37,8))" style="shape=partialRectangle;connectable=0;fillColor=none;top=0;left=0;bottom=0;right=0;align=left;spacingLeft=6;overflow=hidden;fontStyle=0" vertex="1" parent="l_n6AM041N4fsggl3QX--174">
          <mxGeometry x="30" width="180" height="30" as="geometry" />
        </mxCell>
        <mxCell id="l_n6AM041N4fsggl3QX--171" style="shape=partialRectangle;collapsible=0;dropTarget=0;pointerEvents=0;fillColor=none;top=0;left=0;bottom=0;right=0;points=[[0,0.5],[1,0.5]];portConstraint=eastwest;" vertex="1" parent="l_n6AM041N4fsggl3QX--114">
          <mxGeometry y="330" width="210" height="30" as="geometry" />
        </mxCell>
        <mxCell id="l_n6AM041N4fsggl3QX--172" style="shape=partialRectangle;connectable=0;fillColor=none;top=0;left=0;bottom=0;right=0;editable=1;overflow=hidden;" vertex="1" parent="l_n6AM041N4fsggl3QX--171">
          <mxGeometry width="30" height="30" as="geometry" />
        </mxCell>
        <mxCell id="l_n6AM041N4fsggl3QX--173" value="isoNumeric (Text[3])" style="shape=partialRectangle;connectable=0;fillColor=none;top=0;left=0;bottom=0;right=0;align=left;spacingLeft=6;overflow=hidden;fontStyle=0" vertex="1" parent="l_n6AM041N4fsggl3QX--171">
          <mxGeometry x="30" width="180" height="30" as="geometry" />
        </mxCell>
        <mxCell id="l_n6AM041N4fsggl3QX--168" style="shape=partialRectangle;collapsible=0;dropTarget=0;pointerEvents=0;fillColor=none;top=0;left=0;bottom=0;right=0;points=[[0,0.5],[1,0.5]];portConstraint=eastwest;" vertex="1" parent="l_n6AM041N4fsggl3QX--114">
          <mxGeometry y="360" width="210" height="30" as="geometry" />
        </mxCell>
        <mxCell id="l_n6AM041N4fsggl3QX--169" style="shape=partialRectangle;connectable=0;fillColor=none;top=0;left=0;bottom=0;right=0;editable=1;overflow=hidden;" vertex="1" parent="l_n6AM041N4fsggl3QX--168">
          <mxGeometry width="30" height="30" as="geometry" />
        </mxCell>
        <mxCell id="l_n6AM041N4fsggl3QX--170" value="areaInSqKm (Text[20)" style="shape=partialRectangle;connectable=0;fillColor=none;top=0;left=0;bottom=0;right=0;align=left;spacingLeft=6;overflow=hidden;fontStyle=0" vertex="1" parent="l_n6AM041N4fsggl3QX--168">
          <mxGeometry x="30" width="180" height="30" as="geometry" />
        </mxCell>
        <mxCell id="l_n6AM041N4fsggl3QX--165" style="shape=partialRectangle;collapsible=0;dropTarget=0;pointerEvents=0;fillColor=none;top=0;left=0;bottom=0;right=0;points=[[0,0.5],[1,0.5]];portConstraint=eastwest;" vertex="1" parent="l_n6AM041N4fsggl3QX--114">
          <mxGeometry y="390" width="210" height="30" as="geometry" />
        </mxCell>
        <mxCell id="l_n6AM041N4fsggl3QX--166" style="shape=partialRectangle;connectable=0;fillColor=none;top=0;left=0;bottom=0;right=0;editable=1;overflow=hidden;" vertex="1" parent="l_n6AM041N4fsggl3QX--165">
          <mxGeometry width="30" height="30" as="geometry" />
        </mxCell>
        <mxCell id="l_n6AM041N4fsggl3QX--167" value="WestÂ (Decimal (37,8))" style="shape=partialRectangle;connectable=0;fillColor=none;top=0;left=0;bottom=0;right=0;align=left;spacingLeft=6;overflow=hidden;fontStyle=0" vertex="1" parent="l_n6AM041N4fsggl3QX--165">
          <mxGeometry x="30" width="180" height="30" as="geometry" />
        </mxCell>
        <mxCell id="l_n6AM041N4fsggl3QX--162" style="shape=partialRectangle;collapsible=0;dropTarget=0;pointerEvents=0;fillColor=none;top=0;left=0;bottom=0;right=0;points=[[0,0.5],[1,0.5]];portConstraint=eastwest;" vertex="1" parent="l_n6AM041N4fsggl3QX--114">
          <mxGeometry y="420" width="210" height="30" as="geometry" />
        </mxCell>
        <mxCell id="l_n6AM041N4fsggl3QX--163" style="shape=partialRectangle;connectable=0;fillColor=none;top=0;left=0;bottom=0;right=0;editable=1;overflow=hidden;" vertex="1" parent="l_n6AM041N4fsggl3QX--162">
          <mxGeometry width="30" height="30" as="geometry" />
        </mxCell>
        <mxCell id="l_n6AM041N4fsggl3QX--164" value="CountryName (Text [50])" style="shape=partialRectangle;connectable=0;fillColor=none;top=0;left=0;bottom=0;right=0;align=left;spacingLeft=6;overflow=hidden;fontStyle=0" vertex="1" parent="l_n6AM041N4fsggl3QX--162">
          <mxGeometry x="30" width="180" height="30" as="geometry" />
        </mxCell>
        <mxCell id="l_n6AM041N4fsggl3QX--159" style="shape=partialRectangle;collapsible=0;dropTarget=0;pointerEvents=0;fillColor=none;top=0;left=0;bottom=0;right=0;points=[[0,0.5],[1,0.5]];portConstraint=eastwest;" vertex="1" parent="l_n6AM041N4fsggl3QX--114">
          <mxGeometry y="450" width="210" height="30" as="geometry" />
        </mxCell>
        <mxCell id="l_n6AM041N4fsggl3QX--160" style="shape=partialRectangle;connectable=0;fillColor=none;top=0;left=0;bottom=0;right=0;editable=1;overflow=hidden;" vertex="1" parent="l_n6AM041N4fsggl3QX--159">
          <mxGeometry width="30" height="30" as="geometry" />
        </mxCell>
        <mxCell id="l_n6AM041N4fsggl3QX--161" value="PostalCodeFormat (Text [20] )Â " style="shape=partialRectangle;connectable=0;fillColor=none;top=0;left=0;bottom=0;right=0;align=left;spacingLeft=6;overflow=hidden;fontStyle=0" vertex="1" parent="l_n6AM041N4fsggl3QX--159">
          <mxGeometry x="30" width="180" height="30" as="geometry" />
        </mxCell>
        <mxCell id="l_n6AM041N4fsggl3QX--156" style="shape=partialRectangle;collapsible=0;dropTarget=0;pointerEvents=0;fillColor=none;top=0;left=0;bottom=0;right=0;points=[[0,0.5],[1,0.5]];portConstraint=eastwest;" vertex="1" parent="l_n6AM041N4fsggl3QX--114">
          <mxGeometry y="480" width="210" height="30" as="geometry" />
        </mxCell>
        <mxCell id="l_n6AM041N4fsggl3QX--157" style="shape=partialRectangle;connectable=0;fillColor=none;top=0;left=0;bottom=0;right=0;editable=1;overflow=hidden;" vertex="1" parent="l_n6AM041N4fsggl3QX--156">
          <mxGeometry width="30" height="30" as="geometry" />
        </mxCell>
        <mxCell id="l_n6AM041N4fsggl3QX--158" value="ContinentName (Text [20])" style="shape=partialRectangle;connectable=0;fillColor=none;top=0;left=0;bottom=0;right=0;align=left;spacingLeft=6;overflow=hidden;fontStyle=0" vertex="1" parent="l_n6AM041N4fsggl3QX--156">
          <mxGeometry x="30" width="180" height="30" as="geometry" />
        </mxCell>
        <mxCell id="l_n6AM041N4fsggl3QX--153" style="shape=partialRectangle;collapsible=0;dropTarget=0;pointerEvents=0;fillColor=none;top=0;left=0;bottom=0;right=0;points=[[0,0.5],[1,0.5]];portConstraint=eastwest;" vertex="1" parent="l_n6AM041N4fsggl3QX--114">
          <mxGeometry y="510" width="210" height="30" as="geometry" />
        </mxCell>
        <mxCell id="l_n6AM041N4fsggl3QX--154" style="shape=partialRectangle;connectable=0;fillColor=none;top=0;left=0;bottom=0;right=0;editable=1;overflow=hidden;" vertex="1" parent="l_n6AM041N4fsggl3QX--153">
          <mxGeometry width="30" height="30" as="geometry" />
        </mxCell>
        <mxCell id="l_n6AM041N4fsggl3QX--155" value="CurrencyCode (Text[3])" style="shape=partialRectangle;connectable=0;fillColor=none;top=0;left=0;bottom=0;right=0;align=left;spacingLeft=6;overflow=hidden;fontStyle=0" vertex="1" parent="l_n6AM041N4fsggl3QX--153">
          <mxGeometry x="30" width="180" height="30" as="geometry" />
        </mxCell>
        <mxCell id="l_n6AM041N4fsggl3QX--215" style="shape=partialRectangle;collapsible=0;dropTarget=0;pointerEvents=0;fillColor=none;top=0;left=0;bottom=0;right=0;points=[[0,0.5],[1,0.5]];portConstraint=eastwest;" vertex="1" parent="l_n6AM041N4fsggl3QX--114">
          <mxGeometry y="540" width="210" height="30" as="geometry" />
        </mxCell>
        <mxCell id="l_n6AM041N4fsggl3QX--216" style="shape=partialRectangle;connectable=0;fillColor=none;top=0;left=0;bottom=0;right=0;editable=1;overflow=hidden;" vertex="1" parent="l_n6AM041N4fsggl3QX--215">
          <mxGeometry width="30" height="30" as="geometry" />
        </mxCell>
        <mxCell id="l_n6AM041N4fsggl3QX--217" value="CreatedBy (UserID)" style="shape=partialRectangle;connectable=0;fillColor=none;top=0;left=0;bottom=0;right=0;align=left;spacingLeft=6;overflow=hidden;fontStyle=0" vertex="1" parent="l_n6AM041N4fsggl3QX--215">
          <mxGeometry x="30" width="180" height="30" as="geometry" />
        </mxCell>
        <mxCell id="l_n6AM041N4fsggl3QX--212" style="shape=partialRectangle;collapsible=0;dropTarget=0;pointerEvents=0;fillColor=none;top=0;left=0;bottom=0;right=0;points=[[0,0.5],[1,0.5]];portConstraint=eastwest;" vertex="1" parent="l_n6AM041N4fsggl3QX--114">
          <mxGeometry y="570" width="210" height="30" as="geometry" />
        </mxCell>
        <mxCell id="l_n6AM041N4fsggl3QX--213" style="shape=partialRectangle;connectable=0;fillColor=none;top=0;left=0;bottom=0;right=0;editable=1;overflow=hidden;" vertex="1" parent="l_n6AM041N4fsggl3QX--212">
          <mxGeometry width="30" height="30" as="geometry" />
        </mxCell>
        <mxCell id="l_n6AM041N4fsggl3QX--214" value="CreatedOn (DateTime)" style="shape=partialRectangle;connectable=0;fillColor=none;top=0;left=0;bottom=0;right=0;align=left;spacingLeft=6;overflow=hidden;fontStyle=0" vertex="1" parent="l_n6AM041N4fsggl3QX--212">
          <mxGeometry x="30" width="180" height="30" as="geometry" />
        </mxCell>
        <mxCell id="l_n6AM041N4fsggl3QX--209" style="shape=partialRectangle;collapsible=0;dropTarget=0;pointerEvents=0;fillColor=none;top=0;left=0;bottom=0;right=0;points=[[0,0.5],[1,0.5]];portConstraint=eastwest;" vertex="1" parent="l_n6AM041N4fsggl3QX--114">
          <mxGeometry y="600" width="210" height="30" as="geometry" />
        </mxCell>
        <mxCell id="l_n6AM041N4fsggl3QX--210" style="shape=partialRectangle;connectable=0;fillColor=none;top=0;left=0;bottom=0;right=0;editable=1;overflow=hidden;" vertex="1" parent="l_n6AM041N4fsggl3QX--209">
          <mxGeometry width="30" height="30" as="geometry" />
        </mxCell>
        <mxCell id="l_n6AM041N4fsggl3QX--211" value="ModifiedBy (UserID)" style="shape=partialRectangle;connectable=0;fillColor=none;top=0;left=0;bottom=0;right=0;align=left;spacingLeft=6;overflow=hidden;fontStyle=0" vertex="1" parent="l_n6AM041N4fsggl3QX--209">
          <mxGeometry x="30" width="180" height="30" as="geometry" />
        </mxCell>
        <mxCell id="l_n6AM041N4fsggl3QX--206" style="shape=partialRectangle;collapsible=0;dropTarget=0;pointerEvents=0;fillColor=none;top=0;left=0;bottom=0;right=0;points=[[0,0.5],[1,0.5]];portConstraint=eastwest;" vertex="1" parent="l_n6AM041N4fsggl3QX--114">
          <mxGeometry y="630" width="210" height="30" as="geometry" />
        </mxCell>
        <mxCell id="l_n6AM041N4fsggl3QX--207" style="shape=partialRectangle;connectable=0;fillColor=none;top=0;left=0;bottom=0;right=0;editable=1;overflow=hidden;" vertex="1" parent="l_n6AM041N4fsggl3QX--206">
          <mxGeometry width="30" height="30" as="geometry" />
        </mxCell>
        <mxCell id="l_n6AM041N4fsggl3QX--208" value="LastModifiedOn (DateTime)" style="shape=partialRectangle;connectable=0;fillColor=none;top=0;left=0;bottom=0;right=0;align=left;spacingLeft=6;overflow=hidden;fontStyle=0" vertex="1" parent="l_n6AM041N4fsggl3QX--206">
          <mxGeometry x="30" width="180" height="30" as="geometry" />
        </mxCell>
        <mxCell id="l_n6AM041N4fsggl3QX--127" value="Language" style="shape=table;startSize=30;container=1;collapsible=1;childLayout=tableLayout;fixedRows=1;rowLines=0;fontStyle=1;align=center;resizeLast=1;" vertex="1" parent="1">
          <mxGeometry x="624" y="40" width="190" height="220" as="geometry" />
        </mxCell>
        <mxCell id="l_n6AM041N4fsggl3QX--128" value="" style="shape=partialRectangle;collapsible=0;dropTarget=0;pointerEvents=0;fillColor=none;top=0;left=0;bottom=1;right=0;points=[[0,0.5],[1,0.5]];portConstraint=eastwest;" vertex="1" parent="l_n6AM041N4fsggl3QX--127">
          <mxGeometry y="30" width="190" height="30" as="geometry" />
        </mxCell>
        <mxCell id="l_n6AM041N4fsggl3QX--129" value="PK" style="shape=partialRectangle;connectable=0;fillColor=none;top=0;left=0;bottom=0;right=0;fontStyle=1;overflow=hidden;" vertex="1" parent="l_n6AM041N4fsggl3QX--128">
          <mxGeometry width="30" height="30" as="geometry" />
        </mxCell>
        <mxCell id="l_n6AM041N4fsggl3QX--130" value="LanguageCode (Text [10])" style="shape=partialRectangle;connectable=0;fillColor=none;top=0;left=0;bottom=0;right=0;align=left;spacingLeft=6;fontStyle=5;overflow=hidden;" vertex="1" parent="l_n6AM041N4fsggl3QX--128">
          <mxGeometry x="30" width="160" height="30" as="geometry" />
        </mxCell>
        <mxCell id="l_n6AM041N4fsggl3QX--134" value="" style="shape=partialRectangle;collapsible=0;dropTarget=0;pointerEvents=0;fillColor=none;top=0;left=0;bottom=0;right=0;points=[[0,0.5],[1,0.5]];portConstraint=eastwest;" vertex="1" parent="l_n6AM041N4fsggl3QX--127">
          <mxGeometry y="60" width="190" height="30" as="geometry" />
        </mxCell>
        <mxCell id="l_n6AM041N4fsggl3QX--135" value="" style="shape=partialRectangle;connectable=0;fillColor=none;top=0;left=0;bottom=0;right=0;editable=1;overflow=hidden;" vertex="1" parent="l_n6AM041N4fsggl3QX--134">
          <mxGeometry width="30" height="30" as="geometry" />
        </mxCell>
        <mxCell id="l_n6AM041N4fsggl3QX--136" value="LanguageName (Text [50])" style="shape=partialRectangle;connectable=0;fillColor=none;top=0;left=0;bottom=0;right=0;align=left;spacingLeft=6;overflow=hidden;" vertex="1" parent="l_n6AM041N4fsggl3QX--134">
          <mxGeometry x="30" width="160" height="30" as="geometry" />
        </mxCell>
        <mxCell id="l_n6AM041N4fsggl3QX--218" style="shape=partialRectangle;collapsible=0;dropTarget=0;pointerEvents=0;fillColor=none;top=0;left=0;bottom=0;right=0;points=[[0,0.5],[1,0.5]];portConstraint=eastwest;" vertex="1" parent="l_n6AM041N4fsggl3QX--127">
          <mxGeometry y="90" width="190" height="30" as="geometry" />
        </mxCell>
        <mxCell id="l_n6AM041N4fsggl3QX--219" style="shape=partialRectangle;connectable=0;fillColor=none;top=0;left=0;bottom=0;right=0;editable=1;overflow=hidden;" vertex="1" parent="l_n6AM041N4fsggl3QX--218">
          <mxGeometry width="30" height="30" as="geometry" />
        </mxCell>
        <mxCell id="l_n6AM041N4fsggl3QX--220" value="CreatedBy (UserID)" style="shape=partialRectangle;connectable=0;fillColor=none;top=0;left=0;bottom=0;right=0;align=left;spacingLeft=6;overflow=hidden;" vertex="1" parent="l_n6AM041N4fsggl3QX--218">
          <mxGeometry x="30" width="160" height="30" as="geometry" />
        </mxCell>
        <mxCell id="l_n6AM041N4fsggl3QX--221" style="shape=partialRectangle;collapsible=0;dropTarget=0;pointerEvents=0;fillColor=none;top=0;left=0;bottom=0;right=0;points=[[0,0.5],[1,0.5]];portConstraint=eastwest;" vertex="1" parent="l_n6AM041N4fsggl3QX--127">
          <mxGeometry y="120" width="190" height="30" as="geometry" />
        </mxCell>
        <mxCell id="l_n6AM041N4fsggl3QX--222" style="shape=partialRectangle;connectable=0;fillColor=none;top=0;left=0;bottom=0;right=0;editable=1;overflow=hidden;" vertex="1" parent="l_n6AM041N4fsggl3QX--221">
          <mxGeometry width="30" height="30" as="geometry" />
        </mxCell>
        <mxCell id="l_n6AM041N4fsggl3QX--223" value="CreatedOn (DateTime)" style="shape=partialRectangle;connectable=0;fillColor=none;top=0;left=0;bottom=0;right=0;align=left;spacingLeft=6;overflow=hidden;" vertex="1" parent="l_n6AM041N4fsggl3QX--221">
          <mxGeometry x="30" width="160" height="30" as="geometry" />
        </mxCell>
        <mxCell id="l_n6AM041N4fsggl3QX--224" style="shape=partialRectangle;collapsible=0;dropTarget=0;pointerEvents=0;fillColor=none;top=0;left=0;bottom=0;right=0;points=[[0,0.5],[1,0.5]];portConstraint=eastwest;" vertex="1" parent="l_n6AM041N4fsggl3QX--127">
          <mxGeometry y="150" width="190" height="30" as="geometry" />
        </mxCell>
        <mxCell id="l_n6AM041N4fsggl3QX--225" style="shape=partialRectangle;connectable=0;fillColor=none;top=0;left=0;bottom=0;right=0;editable=1;overflow=hidden;" vertex="1" parent="l_n6AM041N4fsggl3QX--224">
          <mxGeometry width="30" height="30" as="geometry" />
        </mxCell>
        <mxCell id="l_n6AM041N4fsggl3QX--226" value="ModifiedBy (UserID)" style="shape=partialRectangle;connectable=0;fillColor=none;top=0;left=0;bottom=0;right=0;align=left;spacingLeft=6;overflow=hidden;" vertex="1" parent="l_n6AM041N4fsggl3QX--224">
          <mxGeometry x="30" width="160" height="30" as="geometry" />
        </mxCell>
        <mxCell id="l_n6AM041N4fsggl3QX--227" style="shape=partialRectangle;collapsible=0;dropTarget=0;pointerEvents=0;fillColor=none;top=0;left=0;bottom=0;right=0;points=[[0,0.5],[1,0.5]];portConstraint=eastwest;" vertex="1" parent="l_n6AM041N4fsggl3QX--127">
          <mxGeometry y="180" width="190" height="30" as="geometry" />
        </mxCell>
        <mxCell id="l_n6AM041N4fsggl3QX--228" style="shape=partialRectangle;connectable=0;fillColor=none;top=0;left=0;bottom=0;right=0;editable=1;overflow=hidden;" vertex="1" parent="l_n6AM041N4fsggl3QX--227">
          <mxGeometry width="30" height="30" as="geometry" />
        </mxCell>
        <mxCell id="l_n6AM041N4fsggl3QX--229" value="LastModifiedOn (DateTime)" style="shape=partialRectangle;connectable=0;fillColor=none;top=0;left=0;bottom=0;right=0;align=left;spacingLeft=6;overflow=hidden;" vertex="1" parent="l_n6AM041N4fsggl3QX--227">
          <mxGeometry x="30" width="160" height="30" as="geometry" />
        </mxCell>
        <mxCell id="l_n6AM041N4fsggl3QX--184" value="CountryLanguageMapping" style="shape=table;startSize=30;container=1;collapsible=1;childLayout=tableLayout;fixedRows=1;rowLines=0;fontStyle=1;align=center;resizeLast=1;" vertex="1" parent="1">
          <mxGeometry x="330" y="40" width="207" height="250" as="geometry" />
        </mxCell>
        <mxCell id="l_n6AM041N4fsggl3QX--185" value="" style="shape=partialRectangle;collapsible=0;dropTarget=0;pointerEvents=0;fillColor=none;top=0;left=0;bottom=1;right=0;points=[[0,0.5],[1,0.5]];portConstraint=eastwest;" vertex="1" parent="l_n6AM041N4fsggl3QX--184">
          <mxGeometry y="30" width="207" height="30" as="geometry" />
        </mxCell>
        <mxCell id="l_n6AM041N4fsggl3QX--186" value="PK" style="shape=partialRectangle;connectable=0;fillColor=none;top=0;left=0;bottom=0;right=0;fontStyle=1;overflow=hidden;" vertex="1" parent="l_n6AM041N4fsggl3QX--185">
          <mxGeometry width="30" height="30" as="geometry" />
        </mxCell>
        <mxCell id="l_n6AM041N4fsggl3QX--187" value="CountryLanguageMappingID" style="shape=partialRectangle;connectable=0;fillColor=none;top=0;left=0;bottom=0;right=0;align=left;spacingLeft=6;fontStyle=5;overflow=hidden;" vertex="1" parent="l_n6AM041N4fsggl3QX--185">
          <mxGeometry x="30" width="177" height="30" as="geometry" />
        </mxCell>
        <mxCell id="l_n6AM041N4fsggl3QX--188" value="" style="shape=partialRectangle;collapsible=0;dropTarget=0;pointerEvents=0;fillColor=none;top=0;left=0;bottom=0;right=0;points=[[0,0.5],[1,0.5]];portConstraint=eastwest;" vertex="1" parent="l_n6AM041N4fsggl3QX--184">
          <mxGeometry y="60" width="207" height="30" as="geometry" />
        </mxCell>
        <mxCell id="l_n6AM041N4fsggl3QX--189" value="FK" style="shape=partialRectangle;connectable=0;fillColor=none;top=0;left=0;bottom=0;right=0;editable=1;overflow=hidden;" vertex="1" parent="l_n6AM041N4fsggl3QX--188">
          <mxGeometry width="30" height="30" as="geometry" />
        </mxCell>
        <mxCell id="l_n6AM041N4fsggl3QX--190" value="CountryCode (Text[2])" style="shape=partialRectangle;connectable=0;fillColor=none;top=0;left=0;bottom=0;right=0;align=left;spacingLeft=6;overflow=hidden;fontStyle=0" vertex="1" parent="l_n6AM041N4fsggl3QX--188">
          <mxGeometry x="30" width="177" height="30" as="geometry" />
        </mxCell>
        <mxCell id="l_n6AM041N4fsggl3QX--191" value="" style="shape=partialRectangle;collapsible=0;dropTarget=0;pointerEvents=0;fillColor=none;top=0;left=0;bottom=0;right=0;points=[[0,0.5],[1,0.5]];portConstraint=eastwest;" vertex="1" parent="l_n6AM041N4fsggl3QX--184">
          <mxGeometry y="90" width="207" height="30" as="geometry" />
        </mxCell>
        <mxCell id="l_n6AM041N4fsggl3QX--192" value="FK" style="shape=partialRectangle;connectable=0;fillColor=none;top=0;left=0;bottom=0;right=0;editable=1;overflow=hidden;" vertex="1" parent="l_n6AM041N4fsggl3QX--191">
          <mxGeometry width="30" height="30" as="geometry" />
        </mxCell>
        <mxCell id="l_n6AM041N4fsggl3QX--193" value="LanguageCode (Text [10])" style="shape=partialRectangle;connectable=0;fillColor=none;top=0;left=0;bottom=0;right=0;align=left;spacingLeft=6;overflow=hidden;fontStyle=0" vertex="1" parent="l_n6AM041N4fsggl3QX--191">
          <mxGeometry x="30" width="177" height="30" as="geometry" />
        </mxCell>
        <mxCell id="l_n6AM041N4fsggl3QX--194" value="" style="shape=partialRectangle;collapsible=0;dropTarget=0;pointerEvents=0;fillColor=none;top=0;left=0;bottom=0;right=0;points=[[0,0.5],[1,0.5]];portConstraint=eastwest;" vertex="1" parent="l_n6AM041N4fsggl3QX--184">
          <mxGeometry y="120" width="207" height="30" as="geometry" />
        </mxCell>
        <mxCell id="l_n6AM041N4fsggl3QX--195" value="" style="shape=partialRectangle;connectable=0;fillColor=none;top=0;left=0;bottom=0;right=0;editable=1;overflow=hidden;" vertex="1" parent="l_n6AM041N4fsggl3QX--194">
          <mxGeometry width="30" height="30" as="geometry" />
        </mxCell>
        <mxCell id="l_n6AM041N4fsggl3QX--196" value="CreatedBy (UserID)" style="shape=partialRectangle;connectable=0;fillColor=none;top=0;left=0;bottom=0;right=0;align=left;spacingLeft=6;overflow=hidden;" vertex="1" parent="l_n6AM041N4fsggl3QX--194">
          <mxGeometry x="30" width="177" height="30" as="geometry" />
        </mxCell>
        <mxCell id="l_n6AM041N4fsggl3QX--197" style="shape=partialRectangle;collapsible=0;dropTarget=0;pointerEvents=0;fillColor=none;top=0;left=0;bottom=0;right=0;points=[[0,0.5],[1,0.5]];portConstraint=eastwest;" vertex="1" parent="l_n6AM041N4fsggl3QX--184">
          <mxGeometry y="150" width="207" height="30" as="geometry" />
        </mxCell>
        <mxCell id="l_n6AM041N4fsggl3QX--198" style="shape=partialRectangle;connectable=0;fillColor=none;top=0;left=0;bottom=0;right=0;editable=1;overflow=hidden;" vertex="1" parent="l_n6AM041N4fsggl3QX--197">
          <mxGeometry width="30" height="30" as="geometry" />
        </mxCell>
        <mxCell id="l_n6AM041N4fsggl3QX--199" value="CreatedOn (DateTime)" style="shape=partialRectangle;connectable=0;fillColor=none;top=0;left=0;bottom=0;right=0;align=left;spacingLeft=6;overflow=hidden;" vertex="1" parent="l_n6AM041N4fsggl3QX--197">
          <mxGeometry x="30" width="177" height="30" as="geometry" />
        </mxCell>
        <mxCell id="l_n6AM041N4fsggl3QX--203" style="shape=partialRectangle;collapsible=0;dropTarget=0;pointerEvents=0;fillColor=none;top=0;left=0;bottom=0;right=0;points=[[0,0.5],[1,0.5]];portConstraint=eastwest;" vertex="1" parent="l_n6AM041N4fsggl3QX--184">
          <mxGeometry y="180" width="207" height="30" as="geometry" />
        </mxCell>
        <mxCell id="l_n6AM041N4fsggl3QX--204" style="shape=partialRectangle;connectable=0;fillColor=none;top=0;left=0;bottom=0;right=0;editable=1;overflow=hidden;" vertex="1" parent="l_n6AM041N4fsggl3QX--203">
          <mxGeometry width="30" height="30" as="geometry" />
        </mxCell>
        <mxCell id="l_n6AM041N4fsggl3QX--205" value="ModifiedBy (UserID)" style="shape=partialRectangle;connectable=0;fillColor=none;top=0;left=0;bottom=0;right=0;align=left;spacingLeft=6;overflow=hidden;" vertex="1" parent="l_n6AM041N4fsggl3QX--203">
          <mxGeometry x="30" width="177" height="30" as="geometry" />
        </mxCell>
        <mxCell id="l_n6AM041N4fsggl3QX--200" style="shape=partialRectangle;collapsible=0;dropTarget=0;pointerEvents=0;fillColor=none;top=0;left=0;bottom=0;right=0;points=[[0,0.5],[1,0.5]];portConstraint=eastwest;" vertex="1" parent="l_n6AM041N4fsggl3QX--184">
          <mxGeometry y="210" width="207" height="30" as="geometry" />
        </mxCell>
        <mxCell id="l_n6AM041N4fsggl3QX--201" style="shape=partialRectangle;connectable=0;fillColor=none;top=0;left=0;bottom=0;right=0;editable=1;overflow=hidden;" vertex="1" parent="l_n6AM041N4fsggl3QX--200">
          <mxGeometry width="30" height="30" as="geometry" />
        </mxCell>
        <mxCell id="l_n6AM041N4fsggl3QX--202" value="LastModifiedOn (DateTime)" style="shape=partialRectangle;connectable=0;fillColor=none;top=0;left=0;bottom=0;right=0;align=left;spacingLeft=6;overflow=hidden;" vertex="1" parent="l_n6AM041N4fsggl3QX--200">
          <mxGeometry x="30" width="177" height="30" as="geometry" />
        </mxCell>
        <mxCell id="l_n6AM041N4fsggl3QX--230" value="" style="edgeStyle=elbowEdgeStyle;fontSize=12;html=1;endArrow=ERoneToMany;exitX=1;exitY=0.5;exitDx=0;exitDy=0;entryX=0;entryY=0.5;entryDx=0;entryDy=0;" edge="1" parent="1" source="l_n6AM041N4fsggl3QX--115" target="l_n6AM041N4fsggl3QX--188">
          <mxGeometry width="100" height="100" relative="1" as="geometry">
            <mxPoint x="430" y="490" as="sourcePoint" />
            <mxPoint x="530" y="390" as="targetPoint" />
          </mxGeometry>
        </mxCell>
        <mxCell id="l_n6AM041N4fsggl3QX--231" value="" style="edgeStyle=orthogonalEdgeStyle;fontSize=12;html=1;endArrow=ERmany;entryX=1;entryY=0.5;entryDx=0;entryDy=0;exitX=0;exitY=0.5;exitDx=0;exitDy=0;" edge="1" parent="1" source="l_n6AM041N4fsggl3QX--128" target="l_n6AM041N4fsggl3QX--191">
          <mxGeometry width="100" height="100" relative="1" as="geometry">
            <mxPoint x="580" y="410" as="sourcePoint" />
            <mxPoint x="680" y="310" as="targetPoint" />
          </mxGeometry>
        </mxCell>
        <mxCell id="l_n6AM041N4fsggl3QX--233" style="edgeStyle=elbowEdgeStyle;rounded=0;orthogonalLoop=1;jettySize=auto;html=1;exitX=0.5;exitY=0;exitDx=0;exitDy=0;" edge="1" parent="1" source="l_n6AM041N4fsggl3QX--127" target="l_n6AM041N4fsggl3QX--127">
          <mxGeometry relative="1" as="geometry" />
        </mxCell>
        <mxCell id="l_n6AM041N4fsggl3QX--235" style="edgeStyle=elbowEdgeStyle;rounded=0;orthogonalLoop=1;jettySize=auto;html=1;exitX=0.75;exitY=0;exitDx=0;exitDy=0;" edge="1" parent="1" source="l_n6AM041N4fsggl3QX--127" target="l_n6AM041N4fsggl3QX--127">
          <mxGeometry relative="1" as="geometry" />
        </mxCell>
      </root>
    </mxGraphModel>
  </diagram>
</mxfile>
